<svg xmlns="http://www.w3.org/2000/svg" xmlns:xlink="http://www.w3.org/1999/xlink" width="500" zoomAndPan="magnify" viewBox="0 0 375 374.999991" height="500" preserveAspectRatio="xMidYMid meet" version="1.0"><defs><clipPath id="072c7ee10b"><path d="M 22.792969 16.335938 L 161.03125 16.335938 L 161.03125 154.574219 L 22.792969 154.574219 Z M 22.792969 16.335938 " clip-rule="nonzero"/></clipPath><clipPath id="1d831b75cc"><path d="M 91.914062 16.335938 C 53.738281 16.335938 22.792969 47.28125 22.792969 85.453125 C 22.792969 123.628906 53.738281 154.574219 91.914062 154.574219 C 130.085938 154.574219 161.03125 123.628906 161.03125 85.453125 C 161.03125 47.28125 130.085938 16.335938 91.914062 16.335938 " clip-rule="nonzero"/></clipPath><clipPath id="1e178f7f0d"><path d="M 22.792969 211.199219 L 161.03125 211.199219 L 161.03125 349.4375 L 22.792969 349.4375 Z M 22.792969 211.199219 " clip-rule="nonzero"/></clipPath><clipPath id="b20a8ba4a3"><path d="M 91.914062 211.199219 C 53.738281 211.199219 22.792969 242.148438 22.792969 280.320312 C 22.792969 318.492188 53.738281 349.4375 91.914062 349.4375 C 130.085938 349.4375 161.03125 318.492188 161.03125 280.320312 C 161.03125 242.148438 130.085938 211.199219 91.914062 211.199219 " clip-rule="nonzero"/></clipPath><clipPath id="43f5d37962"><path d="M 207.402344 211.199219 L 345.640625 211.199219 L 345.640625 349.4375 L 207.402344 349.4375 Z M 207.402344 211.199219 " clip-rule="nonzero"/></clipPath><clipPath id="1a92bac5fa"><path d="M 276.519531 211.199219 C 238.347656 211.199219 207.402344 242.148438 207.402344 280.320312 C 207.402344 318.492188 238.347656 349.4375 276.519531 349.4375 C 314.695312 349.4375 345.640625 318.492188 345.640625 280.320312 C 345.640625 242.148438 314.695312 211.199219 276.519531 211.199219 " clip-rule="nonzero"/></clipPath><clipPath id="1edec38673"><path d="M 207.402344 16.335938 L 345.640625 16.335938 L 345.640625 154.574219 L 207.402344 154.574219 Z M 207.402344 16.335938 " clip-rule="nonzero"/></clipPath><clipPath id="905ad55bc5"><path d="M 276.519531 16.335938 C 238.347656 16.335938 207.402344 47.28125 207.402344 85.453125 C 207.402344 123.628906 238.347656 154.574219 276.519531 154.574219 C 314.695312 154.574219 345.640625 123.628906 345.640625 85.453125 C 345.640625 47.28125 314.695312 16.335938 276.519531 16.335938 " clip-rule="nonzero"/></clipPath></defs><g clip-path="url(#072c7ee10b)"><g clip-path="url(#1d831b75cc)"><path fill="#0cc0df" d="M 22.792969 16.335938 L 161.03125 16.335938 L 161.03125 154.574219 L 22.792969 154.574219 Z M 22.792969 16.335938 " fill-opacity="1" fill-rule="nonzero"/></g></g><g clip-path="url(#1e178f7f0d)"><g clip-path="url(#b20a8ba4a3)"><path fill="#ffbd59" d="M 22.792969 211.199219 L 161.03125 211.199219 L 161.03125 349.4375 L 22.792969 349.4375 Z M 22.792969 211.199219 " fill-opacity="1" fill-rule="nonzero"/></g></g><g clip-path="url(#43f5d37962)"><g clip-path="url(#1a92bac5fa)"><path fill="#ff5757" d="M 207.402344 211.199219 L 345.640625 211.199219 L 345.640625 349.4375 L 207.402344 349.4375 Z M 207.402344 211.199219 " fill-opacity="1" fill-rule="nonzero"/></g></g><g clip-path="url(#1edec38673)"><g clip-path="url(#905ad55bc5)"><path fill="#7ed957" d="M 207.402344 16.335938 L 345.640625 16.335938 L 345.640625 154.574219 L 207.402344 154.574219 Z M 207.402344 16.335938 " fill-opacity="1" fill-rule="nonzero"/></g></g></svg>